<svg width="43" height="43" viewBox="0 0 43 43" fill="none" xmlns="http://www.w3.org/2000/svg">
<rect width="43" height="43" rx="21.5" fill="#0B0E11"/>
<path d="M17.8143 31.3281C12.2207 33.2475 12.04 28.2301 9.82861 27.5446L10.8321 28.2733L11.6242 29.3916L13.3257 31.4073L14.4001 31.9318L15.449 32.0711L16.6824 31.6576L17.8143 31.3281ZM25.4387 34.3996V29.6011C25.4387 28.2301 25.5688 27.6817 24.7883 26.8591C28.4306 26.4478 31.9429 24.9397 31.9429 18.6331C31.9413 16.9947 31.3348 15.4213 30.2518 14.2459C30.7597 12.8228 30.713 11.2457 30.1217 9.85872C30.1217 9.85872 28.6908 9.44742 25.5688 11.641C22.9245 10.9152 20.1479 10.9152 17.5036 11.641C14.3816 9.44742 12.9506 9.85872 12.9506 9.85872C12.3594 11.2457 12.3126 12.8228 12.8205 14.2459C11.7375 15.4213 11.131 16.9947 11.1295 18.6331C11.1295 24.9397 14.6417 26.4478 18.2841 26.8591C17.5036 27.6817 17.5036 28.5043 17.6337 29.6011V34.3996" fill="white"/>
</svg>
