<svg width="20" height="20" viewBox="0 0 20 20" fill="none" xmlns="http://www.w3.org/2000/svg">
<path d="M10 17.5C14.1421 17.5 17.5 14.1421 17.5 10C17.5 5.85786 14.1421 2.5 10 2.5C5.85786 2.5 2.5 5.85786 2.5 10C2.5 14.1421 5.85786 17.5 10 17.5Z" stroke="#0B0E11" stroke-linecap="round" stroke-linejoin="round"/>
<path d="M3 7.5H17" stroke="#0B0E11" stroke-linecap="round" stroke-linejoin="round"/>
<path d="M3 12.5H17" stroke="#0B0E11" stroke-linecap="round" stroke-linejoin="round"/>
<path d="M9.58322 2.5C8.17934 4.74968 7.43506 7.34822 7.43506 10C7.43506 12.6518 8.17934 15.2503 9.58322 17.5" stroke="#0B0E11" stroke-linecap="round" stroke-linejoin="round"/>
<path d="M10.4165 2.5C11.8204 4.74968 12.5647 7.34822 12.5647 10C12.5647 12.6518 11.8204 15.2503 10.4165 17.5" stroke="#0B0E11" stroke-linecap="round" stroke-linejoin="round"/>
</svg>
