<svg width="20" height="20" viewBox="0 0 20 20" fill="none" xmlns="http://www.w3.org/2000/svg">
<path d="M2.5 17.4996H5.83333L16.6667 6.66627C17.1087 6.22424 17.357 5.62472 17.357 4.9996C17.357 4.37448 17.1087 3.77496 16.6667 3.33293C16.2246 2.89091 15.6251 2.64258 15 2.64258C14.3749 2.64258 13.7754 2.89091 13.3333 3.33293L2.5 14.1663V17.4996Z" stroke="#0B0E11" stroke-width="1.5" stroke-linecap="round" stroke-linejoin="round"/>
<path d="M12.0835 4.58301L15.4168 7.91634" stroke="#0B0E11" stroke-width="1.5" stroke-linecap="round" stroke-linejoin="round"/>
<path d="M10 6.66667L5.83333 2.5L2.5 5.83333L6.66667 10" stroke="#0B0E11" stroke-width="1.5" stroke-linecap="round" stroke-linejoin="round"/>
<path d="M5.8335 6.66699L4.5835 7.91699" stroke="#0B0E11" stroke-width="1.5" stroke-linecap="round" stroke-linejoin="round"/>
<path d="M13.3333 10L17.5 14.1667L14.1667 17.5L10 13.3333" stroke="#0B0E11" stroke-width="1.5" stroke-linecap="round" stroke-linejoin="round"/>
<path d="M13.3335 14.167L12.0835 15.417" stroke="#0B0E11" stroke-width="1.5" stroke-linecap="round" stroke-linejoin="round"/>
</svg>
