<svg width="43" height="43" viewBox="0 0 43 43" fill="none" xmlns="http://www.w3.org/2000/svg">
<rect width="43" height="43" rx="21.5" fill="#0B0E11"/>
<path d="M33.1715 11.2017C32.0043 11.8401 30.8605 12.0994 29.67 12.4916C28.3617 10.8434 26.4219 10.7522 24.558 11.5313C22.694 12.3105 21.4732 14.2153 21.5 16.4002V17.7031C17.7127 17.8112 14.3396 15.8856 12.1629 12.4916C12.1629 12.4916 7.28191 22.1758 16.8315 26.8232C14.6466 28.4479 12.4675 29.5436 9.82861 29.4289C13.6895 31.778 17.8971 32.5858 21.5397 31.4054C25.7181 30.0504 29.1518 26.5548 30.4695 21.3185C30.8626 19.726 31.0578 18.0807 31.0496 16.4289C31.0473 16.1044 32.812 12.8173 33.1715 11.2004V11.2017Z" fill="white"/>
</svg>
